<svg width="182" height="28" viewBox="0 0 182 28" fill="none" xmlns="http://www.w3.org/2000/svg">
<g clip-path="url(#clip0_1728_1912)">
<path d="M51.9487 0.0512695H47.4834V22.3728H60.8773V19.0137H51.9487V0.0512695Z" fill="white"/>
<path d="M68.6899 6.74756H64.2256V22.3717H68.6899V6.74756Z" fill="white"/>
<path d="M68.6899 0.0512695H64.2256V4.51519H68.6899V0.0512695Z" fill="white"/>
<path d="M80.9677 6.19043C74.8289 6.19043 72.0381 10.0962 72.0381 14.5611C72.0381 19.026 75.0975 22.9318 80.9677 22.9318C87.6646 22.9318 89.8972 19.025 89.8972 14.5611C89.8972 10.0972 87.1064 6.19043 80.9677 6.19043ZM80.9677 19.5822C78.1769 19.5822 76.5033 17.9079 76.5033 14.5602C76.5033 11.2125 78.1778 9.53718 80.9677 9.53718C83.7575 9.53718 85.432 11.2115 85.432 14.5602C85.432 17.9088 83.7584 19.5822 80.9677 19.5822Z" fill="white"/>
<path d="M181.421 14.5601C181.421 9.81715 178.601 6.18945 172.491 6.18945C166.382 6.18945 163.562 10.345 163.562 14.5601C163.562 19.8319 166.621 22.9308 172.491 22.9308C177.82 22.9308 180.321 20.7059 181.122 17.3507H176.372C175.563 18.8803 174.027 19.5831 172.491 19.5831C170.531 19.5831 168.571 18.2001 168.122 15.6773H181.42V14.562L181.421 14.5601ZM172.491 9.53715C174.874 9.53715 176.133 11.2219 176.656 12.8849H168.289C168.939 10.8813 170.704 9.53715 172.49 9.53715H172.491Z" fill="white"/>
<path d="M145.157 8.56475C143.945 6.98124 142.147 6.19043 140 6.19043C134.543 6.19043 131.763 9.53813 131.763 14.5611C131.763 19.5841 134.543 22.9318 140 22.9318C142.147 22.9318 143.945 21.9811 145.157 20.3333V22.3737H149.621V6.74759H145.157V8.56475ZM140.692 19.5822C137.902 19.5822 136.228 17.9079 136.228 14.5602C136.228 11.2125 137.902 9.53718 140.692 9.53718C143.482 9.53718 145.157 11.2115 145.157 14.5602C145.157 17.9088 143.483 19.5822 140.692 19.5822Z" fill="white"/>
<path d="M157.981 0.0512695H153.517V22.3728H157.981V7.86951H162.446V4.51046H157.981V0.0512695Z" fill="white"/>
<path d="M103.422 6.19043C100.688 6.19043 98.7974 7.36529 97.7094 8.78705V6.74854H93.2451V22.3727H97.7094V12.8849C97.7094 10.6534 98.8257 9.53813 100.779 9.53813C102.733 9.53813 103.848 10.6543 103.848 12.8868C103.848 14.2272 103.848 22.3727 103.848 22.3727H108.313V11.3581C108.313 7.96881 106.116 6.19043 103.422 6.19043H103.422Z" fill="white"/>
<path d="M120.042 6.19131C119.98 6.19131 119.917 6.18942 119.855 6.18942C113.898 6.18942 111.665 9.53713 111.665 13.4429C111.665 17.9069 113.898 20.6974 119.855 20.6974C119.916 20.6974 119.977 20.6974 120.038 20.6955L120.036 20.6974H122.827C124.32 20.6974 125.06 21.2555 125.06 22.3717C125.06 23.4879 124.372 24.0451 122.827 24.0451H113.898V27.9519H123.347C126.145 27.9519 127.85 26.48 127.85 23.8767C127.85 21.8089 126.703 20.2963 125.308 19.4525C127.534 18.131 128.421 15.8977 128.421 13.4429C128.421 11.5236 127.878 9.73956 126.577 8.42091H128.421V6.18848H120.044V6.19037L120.042 6.19131ZM116.134 13.4439C116.134 11.2114 117.246 9.53807 120.042 9.53807C122.839 9.53807 123.943 11.2124 123.943 13.4448C123.943 15.6773 122.826 17.3506 120.036 17.3506C117.247 17.3506 116.135 15.6763 116.135 13.4448L116.134 13.4439Z" fill="white"/>
<path d="M35.0755 7.81824L30.7351 3.47824L22.3694 11.8423V0H16.2306V11.8423L7.85635 3.46878L3.51596 7.80878L11.9413 16.2343H0.046875V22.3726H12.333L19.3005 11.7695L26.268 22.3726H38.554V16.2343H26.6596L35.0755 7.81824Z" fill="white"/>
</g>
<defs>
<clipPath id="clip0_1728_1912">
<rect width="181.468" height="28" fill="white"/>
</clipPath>
</defs>
</svg>
